<svg id="Layer_1" data-name="Layer 1" xmlns="http://www.w3.org/2000/svg" viewBox="0 0 699.89 705.79"><defs><style>.cls-1{fill:#fd4100;}.cls-2{fill:#6e0d7c;}.cls-3{fill:#0f38b2;}.cls-4{fill:#5fb02a;}.cls-5{fill:#febb14;}</style></defs><path class="cls-1" d="M500.66,851.51a1,1,0,0,1,.23,1.39h-2.2C474.46,847.74,455,832.77,434.12,821c-32.92-18.59-65.42-38-98.47-56.31-12.55-7-17.09-15.78-16.93-30,.62-54.33,0-108.67.46-163,.12-13.41-4.64-21.52-16.4-28.14-45.42-25.57-90.45-51.85-135.67-77.79-7.11-4.08-13.68-8.58-17.05-16.47V248.56c6.59-4.16,12.17.08,17.19,3q102.54,58.89,205,117.92Q427,401,481.82,432.67c7.89,4.56,16.13,8.74,21.78,16.36.15.61.29,1.19.43,1.82.17,1.33.33,2.63.51,4a60.78,60.78,0,0,1,1.76,16.38q.1,179.27,0,358.54C506.3,837.48,506.33,845.23,500.66,851.51Z" transform="translate(-150.06 -147.1)"/><path class="cls-2" d="M499.83,449Q380.48,380.32,261.09,311.72c-36.93-21.19-74-42.12-111-63.16v-2.2c7-11.82,19.86-15.84,30.73-22.26,37.53-22.17,75.72-43.2,113.14-65.56,8.89-5.31,18.81-7.67,28.24-11.44h4.41c24.49,5.13,44,20.36,65.15,32.23Q444,208.65,495.55,239.11c4.12,2.44,8.49,4.54,9.45,10a47.34,47.34,0,0,1,1.24,12q.27,84-.05,168C506.16,436.23,506.74,443.89,499.83,449Z" transform="translate(-150.06 -147.1)"/><path class="cls-3" d="M499.83,449q.27-73.75.55-147.51c.08-18,.27-35.95.41-53.93-.66-7.23,5.47-9.25,9.92-11.81,40.08-23.1,80-46.46,120.23-69.35,13.49-7.67,26.75-15.66,42.06-19.26h4.41c16.76,13.1,36,22.06,54.21,32.8,35.86,21.18,72.19,41.57,108.28,62.36,3.12,1.8,5.91,4.17,8.86,6.27-1.57,6.26-6.31,9.53-11.48,12.61-43.88,26.14-88.35,51.26-132.58,76.79Q613.53,390.56,522.27,443c-6.59,3.8-13,8.35-21.38,6.25A3.59,3.59,0,0,1,499.83,449Z" transform="translate(-150.06 -147.1)"/><path class="cls-4" d="M500.89,449.27,801.12,276.05q23.82-13.74,47.64-27.52c2.12,27.09.72,54.23.86,81.34.19,36.69-.07,73.37.31,110.06.08,7.22-2.42,11.08-8.65,14.64C785.72,486.31,730.37,518.4,675,550.39c-7.34,4.33-12.73-1.22-18.07-4.25-23-13-45.83-26.3-68.67-39.56-23.8-13.81-47.51-27.77-71.62-41-6.66-3.66-12.3-7.88-15.67-14.78A2.68,2.68,0,0,1,500.89,449.27Z" transform="translate(-150.06 -147.1)"/><path class="cls-5" d="M500.93,450.78q62.69,35.75,125.35,71.5c16.27,9.3,32.45,18.74,48.68,28.11q0,96.32.19,192.62c0,5.55-.87,9.53-6.25,12.61q-82.2,46.95-164.17,94.27a30,30,0,0,1-4.07,1.62q-.17-147-.28-294C500.37,522,500.74,486.37,500.93,450.78Z" transform="translate(-150.06 -147.1)"/></svg>